G75*
G70*
%OFA0B0*%
%FSLAX24Y24*%
%IPPOS*%
%LPD*%
%AMOC8*
5,1,8,0,0,1.08239X$1,22.5*
%
%ADD10R,0.0220X0.0500*%
%ADD11R,0.0500X0.0220*%
%ADD12C,0.0832*%
%ADD13R,0.0591X0.0512*%
%ADD14R,0.0709X0.0472*%
%ADD15C,0.0197*%
D10*
X008623Y001410D03*
X008938Y001410D03*
X009253Y001410D03*
X009568Y001410D03*
X009882Y001410D03*
X010197Y001410D03*
X010512Y001410D03*
X010827Y001410D03*
X010827Y004790D03*
X010512Y004790D03*
X010197Y004790D03*
X009882Y004790D03*
X009568Y004790D03*
X009253Y004790D03*
X008938Y004790D03*
X008623Y004790D03*
D11*
X008035Y004202D03*
X008035Y003887D03*
X008035Y003572D03*
X008035Y003257D03*
X008035Y002943D03*
X008035Y002628D03*
X008035Y002313D03*
X008035Y001998D03*
X011415Y001998D03*
X011415Y002313D03*
X011415Y002628D03*
X011415Y002943D03*
X011415Y003257D03*
X011415Y003572D03*
X011415Y003887D03*
X011415Y004202D03*
D12*
X010975Y008184D02*
X010975Y009016D01*
X011975Y009016D02*
X011975Y008184D01*
X012975Y008184D02*
X012975Y009016D01*
X013975Y009016D02*
X013975Y008184D01*
X014975Y008184D02*
X014975Y009016D01*
X015975Y009016D02*
X015975Y008184D01*
X016975Y008184D02*
X016975Y009016D01*
X016975Y011184D02*
X016975Y012016D01*
X015975Y012016D02*
X015975Y011184D01*
X014975Y011184D02*
X014975Y012016D01*
X013975Y012016D02*
X013975Y011184D01*
X012975Y011184D02*
X012975Y012016D01*
X011975Y012016D02*
X011975Y011184D01*
X010975Y011184D02*
X010975Y012016D01*
X009975Y012016D02*
X009975Y011184D01*
X008975Y011184D02*
X008975Y012016D01*
X007975Y012016D02*
X007975Y011184D01*
X006975Y011184D02*
X006975Y012016D01*
X005975Y012016D02*
X005975Y011184D01*
X004975Y011184D02*
X004975Y012016D01*
X003975Y012016D02*
X003975Y011184D01*
X003975Y009016D02*
X003975Y008184D01*
X004975Y008184D02*
X004975Y009016D01*
X005975Y009016D02*
X005975Y008184D01*
X006975Y008184D02*
X006975Y009016D01*
X007975Y009016D02*
X007975Y008184D01*
X008975Y008184D02*
X008975Y009016D01*
X009975Y009016D02*
X009975Y008184D01*
D13*
X008975Y006599D03*
X008975Y005851D03*
D14*
X009760Y006975D03*
X010940Y006975D03*
D15*
X002850Y000725D02*
X000600Y002975D01*
X000600Y013100D01*
X002350Y014850D01*
X006600Y014850D01*
X008975Y012475D01*
X008975Y011600D01*
X007975Y011600D02*
X007975Y012475D01*
X006100Y014350D01*
X002600Y014350D01*
X001100Y012850D01*
X001100Y003350D01*
X003040Y001410D01*
X008623Y001410D01*
X008938Y001410D02*
X008938Y000938D01*
X008725Y000725D01*
X002850Y000725D01*
X003327Y001998D02*
X001600Y003725D01*
X001600Y012600D01*
X002850Y013850D01*
X005600Y013850D01*
X006975Y012475D01*
X006975Y011600D01*
X005975Y011600D02*
X005975Y012475D01*
X005100Y013350D01*
X003100Y013350D01*
X002100Y012350D01*
X002100Y004100D01*
X003887Y002313D01*
X008035Y002313D01*
X008035Y002628D02*
X004447Y002628D01*
X002600Y004475D01*
X002600Y012100D01*
X003350Y012850D01*
X004600Y012850D01*
X004975Y012475D01*
X004975Y011600D01*
X003975Y011600D02*
X003975Y010975D01*
X003100Y010100D01*
X003100Y004850D01*
X005007Y002943D01*
X008035Y002943D01*
X008035Y003257D02*
X005568Y003257D01*
X003975Y004850D01*
X003975Y008600D01*
X004975Y008600D02*
X004975Y004850D01*
X006253Y003572D01*
X008035Y003572D01*
X008035Y003887D02*
X006938Y003887D01*
X005975Y004850D01*
X005975Y008600D01*
X006975Y008600D02*
X006975Y004850D01*
X007623Y004202D01*
X008035Y004202D01*
X008410Y004790D02*
X008623Y004790D01*
X008410Y004790D02*
X007600Y005600D01*
X007600Y007350D01*
X007975Y007725D01*
X007975Y008600D01*
X008938Y008563D02*
X008975Y008600D01*
X008975Y007850D01*
X008225Y007100D01*
X008225Y005850D01*
X008938Y005137D01*
X008938Y004790D01*
X009253Y004790D02*
X009253Y005573D01*
X008975Y005851D01*
X008975Y006599D02*
X008976Y006600D01*
X009568Y006600D01*
X009568Y007225D01*
X009760Y006975D01*
X009568Y007225D02*
X009568Y007818D01*
X009975Y008600D01*
X010975Y008600D02*
X010975Y007850D01*
X010350Y007350D01*
X010350Y006600D01*
X009882Y006132D01*
X009882Y004790D01*
X009882Y003850D01*
X009600Y003850D01*
X009568Y003818D01*
X009568Y001410D01*
X009882Y001410D02*
X009882Y000943D01*
X010475Y000350D01*
X018100Y000350D01*
X020475Y002850D01*
X020850Y003225D01*
X020850Y013100D01*
X018600Y015350D01*
X013850Y015350D01*
X010975Y012475D01*
X010975Y011600D01*
X011975Y011600D02*
X011975Y012475D01*
X014350Y014850D01*
X018350Y014850D01*
X020350Y012850D01*
X020350Y003600D01*
X017475Y000725D01*
X010725Y000725D01*
X010512Y000938D01*
X010512Y001410D01*
X010827Y001410D02*
X017285Y001410D01*
X019850Y003975D01*
X019850Y012600D01*
X018100Y014350D01*
X014850Y014350D01*
X012975Y012475D01*
X012975Y011600D01*
X013975Y011600D02*
X013975Y012475D01*
X015350Y013850D01*
X017850Y013850D01*
X019350Y012350D01*
X019350Y004350D01*
X016998Y001998D01*
X011415Y001998D01*
X011415Y002313D02*
X016438Y002313D01*
X018850Y004725D01*
X018850Y012100D01*
X017600Y013350D01*
X015850Y013350D01*
X014975Y012475D01*
X014975Y011600D01*
X015975Y011600D02*
X015975Y012225D01*
X016600Y012850D01*
X017350Y012850D01*
X018350Y011850D01*
X018350Y005100D01*
X015878Y002628D01*
X011415Y002628D01*
X011415Y002943D02*
X015318Y002943D01*
X017850Y006225D01*
X017850Y010100D01*
X016975Y010975D01*
X016975Y011600D01*
X016975Y008600D02*
X016975Y006350D01*
X014632Y003257D01*
X011415Y003257D01*
X011415Y003572D02*
X013947Y003572D01*
X015975Y006350D01*
X015975Y008600D01*
X014975Y008600D02*
X014975Y006350D01*
X013262Y003887D01*
X011415Y003887D01*
X011415Y004202D02*
X012577Y004202D01*
X013975Y006350D01*
X013975Y008600D01*
X012975Y008600D02*
X012975Y006475D01*
X012040Y004790D01*
X010827Y004790D01*
X010512Y004790D02*
X010512Y005262D01*
X010725Y005475D01*
X011475Y005475D01*
X011975Y006350D01*
X011975Y008600D01*
X010975Y008600D02*
X010975Y009475D01*
X009975Y010475D01*
X009975Y011600D01*
X010940Y006975D02*
X010940Y006315D01*
X010197Y005697D01*
X010197Y004790D01*
X009568Y004790D02*
X009568Y006600D01*
X009253Y004790D02*
X009253Y003850D01*
X009600Y003850D01*
X008035Y001998D02*
X003327Y001998D01*
M02*
