%
M48
M72
T01C0.0320
%
T01
X3975Y8600
X4975Y8600
X5975Y8600
X6975Y8600
X7975Y8600
X8975Y8600
X9975Y8600
X10975Y8600
X11975Y8600
X12975Y8600
X13975Y8600
X14975Y8600
X15975Y8600
X16975Y8600
X16975Y11600
X15975Y11600
X14975Y11600
X13975Y11600
X12975Y11600
X11975Y11600
X10975Y11600
X9975Y11600
X8975Y11600
X7975Y11600
X6975Y11600
X5975Y11600
X4975Y11600
X3975Y11600
M30
