G75*
G70*
%OFA0B0*%
%FSLAX24Y24*%
%IPPOS*%
%LPD*%
%AMOC8*
5,1,8,0,0,1.08239X$1,22.5*
%
%ADD10C,0.0000*%
%ADD11C,0.0060*%
D10*
X000100Y000100D02*
X000100Y015850D01*
X021350Y015850D01*
X021350Y000100D01*
X000100Y000100D01*
D11*
X007987Y014380D02*
X007880Y014487D01*
X007987Y014380D02*
X008200Y014380D01*
X008307Y014487D01*
X008307Y014700D01*
X008200Y014807D01*
X008094Y014807D01*
X007880Y014700D01*
X007880Y015021D01*
X008307Y015021D01*
X008525Y014700D02*
X008952Y014700D01*
X009169Y014807D02*
X009596Y014380D01*
X009814Y014700D02*
X010241Y014700D01*
X010458Y014807D02*
X010672Y015021D01*
X010672Y014380D01*
X010885Y014380D02*
X010458Y014380D01*
X010134Y014380D02*
X010134Y015021D01*
X009814Y014700D01*
X009596Y014807D02*
X009169Y014380D01*
X008845Y014380D02*
X008845Y015021D01*
X008525Y014700D01*
X011103Y014807D02*
X011103Y014380D01*
X011316Y014380D02*
X011316Y014700D01*
X011423Y014807D01*
X011530Y014700D01*
X011530Y014380D01*
X011747Y014380D02*
X011747Y014807D01*
X011854Y014807D01*
X011961Y014700D01*
X012068Y014807D01*
X012174Y014700D01*
X012174Y014380D01*
X011961Y014380D02*
X011961Y014700D01*
X011316Y014700D02*
X011210Y014807D01*
X011103Y014807D01*
M02*
