G75*
G70*
%OFA0B0*%
%FSLAX24Y24*%
%IPPOS*%
%LPD*%
%AMOC8*
5,1,8,0,0,1.08239X$1,22.5*
%
%ADD10R,0.0300X0.0580*%
%ADD11R,0.0580X0.0300*%
%ADD12C,0.0912*%
%ADD13R,0.0671X0.0592*%
%ADD14R,0.0789X0.0552*%
D10*
X008623Y001410D03*
X008938Y001410D03*
X009253Y001410D03*
X009568Y001410D03*
X009882Y001410D03*
X010197Y001410D03*
X010512Y001410D03*
X010827Y001410D03*
X010827Y004790D03*
X010512Y004790D03*
X010197Y004790D03*
X009882Y004790D03*
X009568Y004790D03*
X009253Y004790D03*
X008938Y004790D03*
X008623Y004790D03*
D11*
X008035Y001998D03*
X008035Y002313D03*
X008035Y002628D03*
X008035Y002943D03*
X008035Y003257D03*
X008035Y003572D03*
X008035Y003887D03*
X008035Y004202D03*
X011415Y004202D03*
X011415Y003887D03*
X011415Y003572D03*
X011415Y003257D03*
X011415Y002943D03*
X011415Y002628D03*
X011415Y002313D03*
X011415Y001998D03*
D12*
X010975Y008184D02*
X010975Y009016D01*
X011975Y009016D02*
X011975Y008184D01*
X012975Y008184D02*
X012975Y009016D01*
X013975Y009016D02*
X013975Y008184D01*
X014975Y008184D02*
X014975Y009016D01*
X015975Y009016D02*
X015975Y008184D01*
X016975Y008184D02*
X016975Y009016D01*
X016975Y011184D02*
X016975Y012016D01*
X015975Y012016D02*
X015975Y011184D01*
X014975Y011184D02*
X014975Y012016D01*
X013975Y012016D02*
X013975Y011184D01*
X012975Y011184D02*
X012975Y012016D01*
X011975Y012016D02*
X011975Y011184D01*
X010975Y011184D02*
X010975Y012016D01*
X009975Y012016D02*
X009975Y011184D01*
X008975Y011184D02*
X008975Y012016D01*
X007975Y012016D02*
X007975Y011184D01*
X006975Y011184D02*
X006975Y012016D01*
X005975Y012016D02*
X005975Y011184D01*
X004975Y011184D02*
X004975Y012016D01*
X003975Y012016D02*
X003975Y011184D01*
X003975Y009016D02*
X003975Y008184D01*
X004975Y008184D02*
X004975Y009016D01*
X005975Y009016D02*
X005975Y008184D01*
X006975Y008184D02*
X006975Y009016D01*
X007975Y009016D02*
X007975Y008184D01*
X008975Y008184D02*
X008975Y009016D01*
X009975Y009016D02*
X009975Y008184D01*
D13*
X008975Y006599D03*
X008975Y005851D03*
D14*
X009760Y006975D03*
X010940Y006975D03*
M02*
